Coordinates
version=1
nRows=10
nColumns=34
inDegrees=yes

Units are S.I. units (second, meters, Newtons, ...)
If the header above contains a line with 'inDegrees', this indicates whether rotational values are in degrees (yes) or radians (no).

endheader
time	pelvis_tilt	pelvis_list	pelvis_rotation	pelvis_tx	pelvis_ty	pelvis_tz	hip_flexion_r	hip_adduction_r	hip_rotation_r	knee_angle_r	ankle_angle_r	subtalar_angle_r	mtp_angle_r	hip_flexion_l	hip_adduction_l	hip_rotation_l	knee_angle_l	ankle_angle_l	subtalar_angle_l	mtp_angle_l	lumbar_extension	lumbar_bending	lumbar_rotation	arm_flex_r	arm_add_r	arm_rot_r	elbow_flex_r	pro_sup_r	arm_flex_l	arm_add_l	arm_rot_l	elbow_flex_l	pro_sup_l
      0.00000000	      0.51046615	      2.22545355	    -97.98446870	     -0.02692617	      1.02937212	     -0.04187865	     -0.16059895	      0.42033480	      7.99246117	      4.09418647	      7.75354463	     -2.21787371	      0.00000000	     10.10886074	     -7.00236049	      9.06110017	     20.77878969	      3.78367616	    -10.54272719	      0.00000000	    -13.43332391	     -8.36019675	     -3.48134482	     15.87039048	    -11.93135774	     15.51884104	     62.96998407	    115.34668632	      9.83367940	     -8.55803190	     22.56358603	     69.54794706	    112.45866768
      0.01666670	      0.50586684	      2.23913964	    -98.03038806	     -0.02690372	      1.02909861	     -0.04157510	     -0.14942589	      0.40941959	      8.00166290	      4.09181742	      7.76916499	     -2.21710240	      0.00000000	     10.11283364	     -6.99497121	      9.06576039	     20.79583109	      3.77253321	    -10.55206215	      0.00000000	    -13.44854382	     -8.35576523	     -3.52583542	     15.83344487	    -11.93365158	     15.51734130	     62.96619160	    115.34533787	      9.83949059	     -8.54964560	     22.56790871	     69.54984400	    112.46001786
      0.03333330	      0.46858645	      2.25937730	    -98.33415009	     -0.02687910	      1.02889502	     -0.04223645	     -0.02172042	      0.43099375	      8.42706734	      4.15146450	      7.99983851	     -1.96198577	      0.00000000	     10.44069356	     -6.97233815	      9.07727752	     21.47323854	      3.77015307	    -11.07643688	      0.00000000	    -13.57803167	     -8.26036679	     -3.57960074	     15.86474713	    -11.90278340	     15.33005029	     63.28290311	    115.31147923	      9.93570406	     -8.52127447	     22.36268005	     69.71062924	    112.47215001
      0.05000000	      0.20000442	      2.30174504	    -98.90203629	     -0.02708225	      1.02824165	     -0.04352058	      0.26890172	      0.71191107	      8.87475654	      4.46734589	      8.18568752	     -1.70037807	      0.00000000	     10.80606924	     -7.25242010	      9.03077384	     22.32500069	      3.88823398	    -11.75318761	      0.00000000	    -13.75193316	     -7.89924252	     -3.41841637	     15.92562809	    -11.90898412	     15.18657667	     63.82758970	    115.29089697	     10.05599114	     -8.26104567	     21.96775176	     69.98916771	    112.49035220
      0.06666670	     -0.17237977	      2.57687634	    -99.77627263	     -0.02802796	      1.02745545	     -0.04482444	      0.77324018	      1.18223515	      9.32133192	      4.59199041	      8.09196436	     -1.27362815	      0.00000000	     11.40328472	     -7.73663187	      8.75304981	     23.30981278	      3.89385470	    -12.49559994	      0.00000000	    -13.57983727	     -7.48774540	     -3.00678882	     15.98839647	    -12.06938300	     15.31205241	     64.40037111	    115.31786303	     10.23997478	     -8.11178198	     21.61018486	     70.02765175	    112.57582233
      0.08333330	     -0.24129268	      2.57701740	   -100.43889480	     -0.02824174	      1.02730773	     -0.04672504	      0.92533284	      1.22454567	      9.74209460	      4.52679287	      7.83700870	     -0.85343708	      0.00000000	     11.80229032	     -7.82499761	      8.59826850	     24.19258391	      3.89199051	    -12.79613409	      0.00000000	    -13.84542842	     -7.42831968	     -3.02456381	     16.34024036	    -12.04501731	     15.40009268	     64.63706994	    115.33853161	     10.73576045	     -8.20641239	     21.59727395	     70.10474936	    112.61847748
      0.10000000	     -0.82889553	      2.84445644	   -101.76791396	     -0.02962731	      1.02665101	     -0.04876853	      1.35438296	      1.93673750	     10.63827055	      4.57096541	      7.76380229	     -0.28991904	      0.00000000	     12.39288245	     -8.66950079	      7.87262304	     25.39826352	      3.81816214	    -13.54220026	      0.00000000	    -13.71493016	     -6.85485048	     -2.20605593	     16.72401385	    -12.43884406	     16.04453274	     65.00234437	    115.45398630	     11.19080953	     -8.11205554	     21.72018749	     70.03372022	    112.76963230
      0.11666670	     -1.12866780	      3.16909461	   -103.21695893	     -0.03089330	      1.02574621	     -0.05096728	      2.02897266	      2.38073423	     11.74656677	      4.87936468	      7.60687519	      0.05732000	      0.00000000	     13.11919421	     -9.30290774	      6.77825836	     26.70519428	      4.12298072	    -13.78698095	      0.00000000	    -13.43834322	     -6.64182778	     -1.37933685	     17.09914544	    -12.66408762	     16.50597086	     65.23342059	    115.60138085	     11.69027273	     -7.96170804	     21.65093360	     69.74663239	    113.05415424
      0.13333330	     -1.60189548	      3.27136762	   -104.38059007	     -0.03226221	      1.02512763	     -0.05245814	      1.94969332	      2.91351443	     12.73405768	      4.45816750	      7.55991871	      0.66429342	      0.00000000	     13.59541200	    -10.06248628	      5.91838933	     27.96301607	      4.05193014	    -14.13802128	      0.00000000	    -13.44219468	     -6.30820981	     -0.85002450	     17.51252602	    -12.77481374	     16.97167615	     65.14431734	    115.67202999	     12.15561568	     -8.07189517	     21.87846008	     69.71184483	    113.21253397
      0.15000000	     -2.19839719	      3.41763514	   -105.88504456	     -0.03349582	      1.02454997	     -0.05474930	      2.18457682	      3.62424758	     13.75504779	      4.49984208	      7.26542664	      1.17822125	      0.00000000	     14.01360439	    -11.05198111	      4.68349215	     28.97517914	      4.36309817	    -14.37895977	      0.00000000	    -13.51797358	     -5.86661036	      0.08432411	     18.12492041	    -13.24199345	     17.88340338	     65.02618501	    115.76166864	     12.73074388	     -8.07536589	     22.24939983	     69.39528910	    113.40138616
